<svg id="Layer_1" data-name="Layer 1" xmlns="http://www.w3.org/2000/svg" viewBox="0 0 1413.96 1455.99"><defs><style>.cls-1,.cls-2{fill:#0f0f0f;}.cls-1{stroke:#3b81f2;stroke-miterlimit:10;stroke-width:20px;}.cls-3{fill:#3b81f2;}</style></defs><path class="cls-1" d="M1672.49,284c-71,24.38-479.68,304.79-479.68,304.79-14.13,10.48-33,17.31-48.75,17.9q-72,2-144.06,2.23-72-.2-144.06-2.23c-15.78-.59-34.62-7.42-48.75-17.9,0,0-408.66-280.41-479.68-304.79a913.86,913.86,0,0,0,32,526.55,1907.71,1907.71,0,0,0-39.21,237.66c-5.18,50.17-5.89,98.34-2.12,143.92,9.23,115.67,46.36,215.89,110.07,296.17,74.65,94,163.59,133.51,231.93,163.6,129.28,56.91,251,67.11,338,64.73l1.82.12,1.82-.12c86.92,2.38,208.69-7.82,338-64.73,68.34-30.09,157.28-69.56,231.93-163.6,63.71-80.28,100.84-180.5,110.07-296.17,3.77-45.58,3.06-93.75-2.12-143.92a1907.71,1907.71,0,0,0-39.21-237.66,913.86,913.86,0,0,0,32-526.55ZM828.08,1128.64c-26.77,39.62-107.59,39.1-156.25,2.37-49.65-37.47-72.89-118-39.06-155.07,29.18-32,91.56-21.53,129,0C817.42,1007.92,856.64,1086.41,828.08,1128.64Zm500.09,2.37c-48.66,36.73-129.48,37.25-156.25-2.37-28.56-42.23,10.66-120.72,66.29-152.7,37.46-21.53,99.84-32,129,0C1401.06,1013,1377.82,1093.54,1328.17,1131Z" transform="translate(-293.02 -270.94)"/><path class="cls-2" d="M828.08,1128.64c-26.77,39.62-107.59,39.1-156.25,2.37-49.65-37.47-72.89-118-39.06-155.07,29.18-32,91.56-21.53,129,0C817.42,1007.92,856.64,1086.41,828.08,1128.64Z" transform="translate(-293.02 -270.94)"/><path class="cls-3" d="M594.85,597.25c-8.36,60.89-114.59,112.47-169.59,82-36-19.91-41.57-70.08-50.88-155.46a660.86,660.86,0,0,1,0-144.15A582.92,582.92,0,0,1,518.53,481.36C567.17,528.47,599.91,560,594.85,597.25Z" transform="translate(-293.02 -270.94)"/><path class="cls-3" d="M828.08,1128.64c-26.77,39.62-107.59,39.1-156.25,2.37-49.65-37.47-72.89-118-39.06-155.07,29.18-32,91.56-21.53,129,0C817.42,1007.92,856.64,1086.41,828.08,1128.64Z" transform="translate(-293.02 -270.94)"/><path class="cls-2" d="M1367.23,975.94c33.83,37.1,10.59,117.6-39.06,155.07-48.66,36.73-129.48,37.25-156.25-2.37-28.56-42.23,10.66-120.72,66.29-152.7C1275.67,954.41,1338.05,943.93,1367.23,975.94Z" transform="translate(-293.02 -270.94)"/><path class="cls-3" d="M1625.62,523.76c-9.31,85.38-14.84,135.55-50.88,155.46-55,30.5-161.23-21.08-169.59-82-5.06-37.22,27.68-68.78,76.32-115.89a582.92,582.92,0,0,1,144.15-101.75A660.86,660.86,0,0,1,1625.62,523.76Z" transform="translate(-293.02 -270.94)"/><path class="cls-3" d="M1328.17,1131c-48.66,36.73-129.48,37.25-156.25-2.37-28.56-42.23,10.66-120.72,66.29-152.7,37.46-21.53,99.84-32,129,0C1401.06,1013,1377.82,1093.54,1328.17,1131Z" transform="translate(-293.02 -270.94)"/></svg>